<?xml version="1.0" encoding="utf-8"?>
<!-- Generator: Adobe Illustrator 24.1.1, SVG Export Plug-In . SVG Version: 6.00 Build 0)  -->
<svg version="1.1" id="Layer_1" xmlns="http://www.w3.org/2000/svg" xmlns:xlink="http://www.w3.org/1999/xlink" x="0px" y="0px"
	 viewBox="0 0 617.5 138.4" style="enable-background:new 0 0 617.5 138.4;" xml:space="preserve">
<style type="text/css">
	.st0{fill:#F0F0F0;}
	.st1{fill:#FFFFFF;}
	.st2{opacity:0.1;fill:#333333;}
	.st3{fill:#333333;}
	.st4{fill:#FFFFFF;stroke:#000000;stroke-miterlimit:10;}
</style>
<g>
	<g>
		<path class="st0" d="M27.2,23.6v8.5h15.1V49H27.2v63.7H8.1V49H0V32.1h8.1v-8.4c0-7.3,1.7-12.9,5.2-16.6c3.5-3.8,8.9-5.7,15.9-5.7
			h13.1v18.3H29.5c-0.9,0-1.3,0.4-1.6,0.7C27.4,21.3,27.2,22.3,27.2,23.6z"/>
	</g>
	<g>
		<path class="st0" d="M111.3,47.2c-2.7-5.3-6.6-9.4-11.6-12.1c-5-2.7-11-4.1-18-4.1c-6.9,0-13,1.4-18,4.1c-5.1,2.8-9,6.9-11.6,12.1
			c-2.6,5.2-3.9,11.5-3.9,18.7v12.4c0,7.3,1.3,13.7,3.9,18.9c2.7,5.3,6.6,9.5,11.6,12.3c5,2.8,11.1,4.2,18,4.2c6.9,0,13-1.4,18-4.2
			c5.1-2.8,9-6.9,11.6-12.2c2.6-5.2,3.9-11.5,3.9-18.8V65.9C115.2,58.7,113.9,52.4,111.3,47.2z M92.3,91.1L92.3,91.1
			c-2.5,2.9-6,4.2-10.7,4.2c-4.7,0-8.2-1.4-10.7-4.2c-2.5-2.9-3.8-7.1-3.8-12.5V65.9c0-5.4,1.3-9.6,3.8-12.4c2.5-2.8,6-4.2,10.7-4.2
			s8.2,1.4,10.7,4.2c2.5,2.8,3.8,7,3.8,12.4v12.7C96.1,84,94.8,88.2,92.3,91.1z"/>
	</g>
	<g>
		<path class="st0" d="M187.9,38.7l-12.4,16.8l-1.7-2c-1.1-1.4-2.5-2.4-4.2-3.1c-1.8-0.7-3.9-1.1-6.2-1.1c-4.2,0-7.4,1.1-9.7,3.4
			c-2.3,2.3-3.4,5.4-3.4,9.5v50.4h-19.1V32.1h19.1v6.8c1.4-1.4,2.8-2.7,4.4-3.8c4.1-2.8,8.6-4.1,13.5-4.1c3.7,0,7.1,0.5,10.1,1.6
			c3.1,1.1,5.8,2.7,8.1,4.9L187.9,38.7z"/>
	</g>
	<g>
		<path class="st0" d="M256.1,46.5c-2.2-5-5.4-8.9-9.6-11.6c-4.2-2.6-9.2-4-15-4c-4.9,0-9.5,1.3-13.6,4c-1.6,1-3,2.2-4.4,3.6V1.4
			h-19.1v111.2h19.1V107c1.1,1.1,2.3,2.1,3.7,3c3.9,2.5,8.4,3.7,13.5,3.7c5.9,0,11.1-1.3,15.3-3.9c4.3-2.6,7.6-6.5,9.9-11.5
			c2.2-4.9,3.3-10.7,3.3-17.5V64.2C259.3,57.4,258.2,51.4,256.1,46.5z M240.2,80.8c0,5-1.2,8.8-3.6,11.4c-2.3,2.6-5.6,3.9-10,3.9
			c-2.8,0-5.2-0.5-7.2-1.6c-1.9-1-3.3-2.5-4.3-4.5c-1-2-1.5-4.5-1.5-7.5V61.7c0-2.8,0.5-5.3,1.5-7.3c1-1.9,2.4-3.3,4.3-4.3
			c1.9-1,4.3-1.5,7.2-1.5c4.4,0,7.7,1.3,10,4c2.4,2.7,3.6,6.6,3.6,11.7V80.8z"/>
	</g>
	<g>
		<rect x="275.4" y="1.4" class="st0" width="19.1" height="19.1"/>
		<rect x="275.4" y="32.1" class="st0" width="19.1" height="80.5"/>
	</g>
	<g>
		<path class="st0" d="M355.5,1.4v36.7c-1.4-1.3-2.8-2.5-4.5-3.5c-4.1-2.6-8.6-3.8-13.5-3.8c-5.8,0-10.8,1.3-15,4
			c-4.2,2.6-7.4,6.5-9.6,11.5c-2.1,4.9-3.2,10.9-3.2,17.7v16.9c0,6.8,1.1,12.7,3.3,17.6c2.2,5,5.5,8.9,9.8,11.5
			c4.3,2.6,9.4,3.9,15.4,3.9c5.5,0,10.2-1.4,14-4.2c1.2-0.9,2.3-1.8,3.2-2.8v5.7h19.1V1.4H355.5z M355.5,82.4c0,3-0.5,5.5-1.6,7.6
			c-1,2-2.4,3.5-4.3,4.6c-1.9,1.1-4.3,1.6-7.2,1.6c-4.4,0-7.7-1.3-10-3.9c-2.4-2.6-3.6-6.5-3.6-11.5V64.2c0-5.1,1.2-9,3.6-11.7
			c2.3-2.7,5.6-3.9,10-3.9c2.8,0,5.3,0.5,7.2,1.6c1.9,1,3.3,2.5,4.3,4.4c1,2,1.5,4.5,1.5,7.4V82.4z"/>
	</g>
	<g>
		<path class="st0" d="M435.6,1.4v36.7c-1.4-1.3-2.9-2.5-4.5-3.5c-4.1-2.6-8.6-3.8-13.5-3.8c-5.8,0-10.8,1.3-15,4
			c-4.2,2.6-7.4,6.5-9.6,11.5C391,51.2,390,57.1,390,64v16.9c0,6.8,1.1,12.7,3.3,17.6c2.2,5,5.5,8.9,9.8,11.5
			c4.3,2.6,9.4,3.9,15.4,3.9c5.5,0,10.2-1.4,14-4.2c1.2-0.9,2.2-1.8,3.2-2.8v5.7h19.1V1.4H435.6z M435.6,82.4c0,3-0.5,5.5-1.6,7.6
			c-1,2-2.4,3.5-4.3,4.6c-1.9,1.1-4.3,1.6-7.1,1.6c-4.4,0-7.7-1.3-10-3.9c-2.4-2.6-3.6-6.5-3.6-11.5V64.2c0-5.1,1.2-9,3.6-11.7
			c2.3-2.7,5.6-3.9,10-3.9c2.8,0,5.3,0.5,7.2,1.6c1.9,1,3.3,2.5,4.3,4.4c1,2,1.6,4.5,1.6,7.4V82.4z"/>
	</g>
	<g>
		<path class="st0" d="M536.6,73.4c0-8.7-1.3-16.2-3.7-22.5c-2.5-6.4-6.2-11.3-11.1-14.8c-4.8-3.4-10.7-5.2-17.5-5.2
			c-7.1,0-13.3,1.5-18.4,4.5c-5.1,3-9.1,7.4-11.8,13.1c-2.6,5.6-4,12.4-4,20.2v8.6c0,7.6,1.4,14.1,4.2,19.5
			c2.8,5.5,6.9,9.7,12.3,12.5c5.3,2.8,11.7,4.2,19.1,4.2c5,0,10.1-1.1,15-3.1c4.9-2.1,9.4-5.1,13.4-8.8l1.5-1.4l-12.7-12.7l-1.4,1.3
			c-2.2,2-4.7,3.6-7.4,4.8c-2.7,1.1-5.5,1.7-8.3,1.7c-5.6,0-9.8-1.5-12.8-4.5c-2.5-2.5-3.9-6-4.3-10.5h48.1V73.4z M488.6,64.3
			c0.5-4.5,1.8-8.2,4-10.8c2.7-3.3,6.6-4.9,11.7-4.9c4.1,0,7.2,1.4,9.6,4.4c2.2,2.7,3.6,6.5,4.2,11.3H488.6z"/>
	</g>
	<g>
		<path class="st0" d="M617.5,64.2v48.4h-19.1V64.2c0-4.8-1.2-8.6-3.6-11.1c-2.4-2.5-5.8-3.8-10.3-3.8c-4.3,0-7.7,1.1-10,3.3
			c-2.3,2.2-3.4,5.3-3.4,9.5v50.4H552V32.1h19.1v6.8c1.4-1.4,2.9-2.7,4.6-3.8c4.1-2.7,8.7-4.1,13.8-4.1c8.9,0,15.9,3,20.8,8.9
			C615,45.6,617.5,53.8,617.5,64.2z"/>
	</g>
</g>
<g>
	<rect x="269.8" y="72.4" class="st1" width="38" height="62.2"/>
	<g>
		<ellipse class="st2" cx="368.3" cy="136.2" rx="41.2" ry="2.1"/>
		<ellipse class="st2" cx="344.8" cy="135.6" rx="14.1" ry="1.1"/>
		<ellipse class="st2" cx="388.9" cy="135.4" rx="14.1" ry="1.1"/>
		<path class="st3" d="M376.9,101.6l22.7-42.2H340v16.3h33.8L352.6,115h14c10.4,0,14.7,7.7,14.7,15.2c0,1.9-0.2,3.7-0.6,5.3h17.4
			c0.2-1.4,0.2-3,0.2-4.5C398.4,114.6,390,104.6,376.9,101.6z M336.7,131.9c0,1.2,0.1,2.4,0.2,3.5h16.9c-0.3-1.1-0.5-2.3-0.5-3.5
			H336.7z"/>
	</g>
	<g>
		<path class="st2" d="M322.2,135.3c0,1.7-14.6,3-32.7,3s-32.7-1.3-32.7-3c0-1.1,6.8-2.1,16.8-2.6v2.1H305v-2.1
			C315.2,133.2,322.2,134.2,322.2,135.3z"/>
		<path class="st2" d="M309.2,135.2c0,1.1-8.8,1.9-19.7,1.9c-10.9,0-19.7-0.9-19.7-1.9c0-0.4,1.4-0.8,3.9-1.1v0.8H305V134
			C307.6,134.4,309.2,134.8,309.2,135.2z"/>
		<g>
			<path class="st3" d="M322.2,90.6v44.8h-16.8V87.9c0-7.8-6.3-14.1-14.1-14.1h-3.6c-7.8,0-14.1,6.3-14.1,14.1v47.5h-16.8V90.6
				c0-21,16.4-31.9,32.7-31.9C305.7,58.7,322.2,69.7,322.2,90.6z"/>
		</g>
		<path class="st3" d="M305.6,89.9c0.2,0,0.3-0.1,0.3-0.3v-1.1c0-0.2-0.1-0.3-0.3-0.3h-0.1v-0.6c0-8-6.5-14.4-14.4-14.4h-3.6
			c-7.9,0-14.4,6.5-14.4,14.4v47.8h32.4v-8.5h0.1c0.2,0,0.3-0.1,0.3-0.3v-1.1c0-0.2-0.1-0.3-0.3-0.3h-0.1v-0.1h0.1
			c0.2,0,0.3-0.1,0.3-0.3v-1.1c0-0.1-0.1-0.3-0.3-0.3h-0.1v-0.1h0.1c0.2,0,0.3-0.1,0.3-0.3V122c0-0.2-0.1-0.3-0.3-0.3h-0.1V93.4h0.1
			c0.2,0,0.3-0.1,0.3-0.3v-1.1c0-0.2-0.1-0.3-0.3-0.3h-0.1v-0.1h0.1c0.2,0,0.3-0.1,0.3-0.3v-1.1c0-0.1-0.1-0.3-0.3-0.3h-0.1
			L305.6,89.9L305.6,89.9z M305,134.9h-31.3V87.6c0-7.7,6.2-13.9,13.9-13.9h3.6c7.7,0,13.9,6.2,13.9,13.9v0.6h-0.1
			c-0.2,0-0.3,0.1-0.3,0.3v1.1c0,0.2,0.1,0.3,0.3,0.3h0.1V90h-0.1c-0.2,0-0.3,0.1-0.3,0.3v1.1c0,0.1,0.1,0.3,0.3,0.3h0.1v0.1h-0.1
			c-0.2,0-0.3,0.1-0.3,0.3v1.1c0,0.2,0.1,0.3,0.3,0.3h0.1v28.3h-0.1c-0.2,0-0.3,0.1-0.3,0.3v1.1c0,0.1,0.1,0.3,0.3,0.3h0.1v0.1h-0.1
			c-0.2,0-0.3,0.1-0.3,0.3v1.1c0,0.1,0.1,0.3,0.3,0.3h0.1v0.1h-0.1c-0.2,0-0.3,0.1-0.3,0.3v1.1c0,0.2,0.1,0.3,0.3,0.3h0.1V134.9z"/>
		<path class="st3" d="M277.5,108.4h-0.1c-0.4,0-0.7-0.3-0.7-0.7v-1.4c0-0.4,0.3-0.7,0.7-0.7h0.1c0.4,0,0.7,0.3,0.7,0.7v1.4
			C278.3,108.1,277.9,108.4,277.5,108.4z"/>
		<path class="st3" d="M283.9,112.5h-6.2c-0.4,0-0.7-0.3-0.7-0.7v-0.1c0-0.4,0.3-0.7,0.7-0.7h6.2c0.4,0,0.7,0.3,0.7,0.7v0.1
			C284.7,112.1,284.3,112.5,283.9,112.5z"/>
		<circle class="st3" cx="277.8" cy="111.6" r="1.2"/>
	</g>
	<g>
		<path class="st2" d="M245.3,135.4C245.3,135.4,245.3,135.4,245.3,135.4c0,1.2-8.7,2.2-19.4,2.5c-10.7,0.2-19.5-0.5-19.5-1.6
			c0,0,0-0.1,0-0.1c-22.7,0-41-0.6-41-1.3c0-0.7,18.8-1.3,42-1.3c8.9,0,17.1,0.1,23.9,0.2h0c1.7,0,3.4,0.1,4.9,0.1
			c0.1,0,0.2,0,0.3,0c7.9,0.2,12.8,0.5,12.8,0.9C249.4,135,247.9,135.2,245.3,135.4z"/>
		<ellipse class="st2" cx="226" cy="135.2" rx="16.2" ry="1"/>
		<path class="st3" d="M217.5,59.4L175.8,114v15.9h41.8v5.6h16.8v-76H217.5z M217.5,115.1h-24l24-30.2V115.1z"/>
		<path class="st2" d="M236.2,133.9c-1.5-0.1-3.2-0.1-4.9-0.1C233.1,133.8,234.7,133.9,236.2,133.9z"/>
	</g>
</g>
<g>
	<path class="st4" d="M166.1,88.5h-16.3c-0.6,0-1-0.4-1-1v-5.1c0-0.6,0.4-1,1-1h16.3c0.6,0,1,0.4,1,1v5.1
		C167.1,88.1,166.7,88.5,166.1,88.5z"/>
	<path class="st4" d="M174.3,81.4h-16.3c-0.6,0-1-0.4-1-1v-5.1c0-0.6,0.4-1,1-1h16.3c0.6,0,1,0.4,1,1v5.1
		C175.3,80.9,174.8,81.4,174.3,81.4z"/>
	<path class="st4" d="M341.8,34.8h-16.3c-0.6,0-1-0.4-1-1v-5.1c0-0.6,0.4-1,1-1h16.3c0.6,0,1,0.4,1,1v5.1
		C342.8,34.3,342.4,34.8,341.8,34.8z"/>
	<path class="st4" d="M431.1,84.8h-16.3c-0.6,0-1-0.4-1-1v-5.1c0-0.6,0.4-1,1-1h16.3c0.6,0,1,0.4,1,1v5.1
		C432.1,84.3,431.6,84.8,431.1,84.8z"/>
	<path class="st4" d="M439.1,91.9h-16.3c-0.6,0-1-0.4-1-1v-5.1c0-0.6,0.4-1,1-1h16.3c0.6,0,1,0.4,1,1v5.1
		C440.1,91.5,439.6,91.9,439.1,91.9z"/>
	<path class="st4" d="M420.7,91.9h-6c-0.6,0-1-0.4-1-1v-5.1c0-0.6,0.4-1,1-1h6c0.6,0,1,0.4,1,1v5.1
		C421.7,91.5,421.3,91.9,420.7,91.9z"/>
	<path class="st4" d="M264.4,52.3H248c-0.6,0-1-0.4-1-1v-5.1c0-0.6,0.4-1,1-1h16.3c0.6,0,1,0.4,1,1v5.1
		C265.4,51.8,264.9,52.3,264.4,52.3z"/>
	<path class="st4" d="M246,52.3h-6c-0.6,0-1-0.4-1-1v-5.1c0-0.6,0.4-1,1-1h6c0.6,0,1,0.4,1,1v5.1C247,51.8,246.6,52.3,246,52.3z"/>
	<path class="st4" d="M327.5,27.7h-16.3c-0.6,0-1-0.4-1-1v-5.1c0-0.6,0.4-1,1-1h16.3c0.6,0,1,0.4,1,1v5.1
		C328.5,27.2,328,27.7,327.5,27.7z"/>
	<path class="st4" d="M332.7,41.9h-16.3c-0.6,0-1-0.4-1-1v-5.1c0-0.6,0.4-1,1-1h16.3c0.6,0,1,0.4,1,1v5.1
		C333.7,41.5,333.2,41.9,332.7,41.9z"/>
</g>
</svg>
