<?xml version="1.0" encoding="utf-8"?>
<!-- Generator: Adobe Illustrator 24.1.1, SVG Export Plug-In . SVG Version: 6.00 Build 0)  -->
<svg version="1.1" id="Layer_1" xmlns="http://www.w3.org/2000/svg" xmlns:xlink="http://www.w3.org/1999/xlink" x="0px" y="0px"
	 viewBox="0 0 557.4 123.8" style="enable-background:new 0 0 557.4 123.8;" xml:space="preserve">
<style type="text/css">
	.st0{fill:url(#SVGID_1_);}
	.st1{fill:url(#SVGID_2_);}
	.st2{fill:#646464;}
</style>
<g>
	<linearGradient id="SVGID_1_" gradientUnits="userSpaceOnUse" x1="55.2948" y1="68.6043" x2="68.8671" y2="55.0333">
		<stop  offset="0" style="stop-color:#A969FF"/>
		<stop  offset="1" style="stop-color:#7F1FFF"/>
	</linearGradient>
	<polygon class="st0" points="56,44.7 74.1,75.5 67.9,79.1 49.9,48.3 	"/>
	<linearGradient id="SVGID_2_" gradientUnits="userSpaceOnUse" x1="9.9127" y1="113.8821" x2="115.5368" y2="8.268">
		<stop  offset="0" style="stop-color:#A969FF"/>
		<stop  offset="1" style="stop-color:#7F1FFF"/>
	</linearGradient>
	<path class="st1" d="M61.9,0C27.7,0,0,27.7,0,61.9c0,34.2,27.7,61.9,61.9,61.9s61.9-27.7,61.9-61.9C123.8,27.7,96.1,0,61.9,0z
		 M81.5,95.9H42.3l-19.7-34l19.6-34c0.1,0,39.3,0,39.3,0l19.6,34L81.5,95.9z"/>
</g>
<g>
	<path class="st2" d="M175.6,56.5c1.3-4,2.1-6.8,2.5-8.3s1-3.9,1.9-7.2c12-2.6,22.3-3.8,30.7-3.8c4.8,0,9.1,0.5,13,1.6
		s6.8,2.8,8.7,5.2s2.6,5.8,2.1,10.3c-0.3,2.3-1.2,7.4-2.8,15.4s-3.4,18.4-5.3,31.4c-4-0.1-7.9-0.1-11.9-0.1c-3.8,0-7.9,0-12.2,0.1
		c1.1-4.5,2.9-13.7,5.3-27.7c-1.6,0.7-2.9,1.3-3.8,1.6c-0.9,0.3-2.5,0.8-4.8,1.5s-4.1,1.2-5.4,1.6c-1.3,0.4-2.4,1-3.4,1.7
		s-1.7,1.4-2.2,2.1s-0.8,1.5-0.9,2.4c-0.2,1.4,0.2,2.6,1.2,3.5c1,1,2.7,1.5,5.1,1.5c0.9,0,1.8-0.1,2.8-0.2s2.4-0.5,4.2-1.1
		c-1.6,3.1-3.5,7.7-5.9,13.7c-3.6,0.6-6.9,0.9-10.1,0.9c-5,0-9.2-0.7-12.3-2.1c-3.2-1.4-5.5-3.7-6.9-6.8c-1.4-3.1-1.9-6.3-1.5-9.4
		c0.2-1.9,0.8-3.8,1.7-5.6s2.2-3.6,3.8-5.4c1.6-1.7,3.5-3.2,5.6-4.5c2.1-1.2,4.8-2.4,8.3-3.5s7.8-2.1,13-3.1c2.2-0.4,4.2-0.8,6-1.3
		s3.1-0.9,3.9-1.2c0.8-0.3,1.5-0.8,2-1.2c0.5-0.5,0.9-1,1.2-1.5s0.4-1,0.5-1.6c0.2-1.5-0.3-2.7-1.5-3.6c-1.2-0.8-3.1-1.3-5.6-1.3
		C195.3,50.5,186.4,52.5,175.6,56.5z"/>
	<path class="st2" d="M308.8,101c-4.3-0.1-8-0.1-10.9-0.1c-3.3,0-7.2,0-11.9,0.1l1.3-7.8c-1.8,1.5-3.3,2.8-4.6,3.8s-2.9,1.9-4.9,2.8
		s-4,1.6-6.2,2.1s-4.4,0.7-6.7,0.7c-3.9,0-7.5-0.7-10.7-2.1s-5.9-3.5-7.9-6.1c-2.1-2.6-3.5-5.7-4.2-9.3c-0.7-3.6-0.9-7.3-0.4-11.2
		c0.7-5.5,2.4-10.9,5.2-16.1c2.8-5.3,6.1-9.4,10-12.4c3.9-3,8.1-5.1,12.6-6.4c4.5-1.2,9.3-1.9,14.4-1.9c3.4,0,7.3,0.3,11.7,0.9
		c0.9-4.8,2-11.6,3.2-20.3c5,0.1,9.1,0.1,12.2,0.1c4.1,0,8.3,0,12.5-0.1c-2.7,12.1-5.6,26.8-8.6,44.3C312,79.4,309.9,92.4,308.8,101
		z M292.9,53.9c-2.1-0.5-4.1-0.7-6-0.7c-4,0-7.4,0.8-10.4,2.3s-5.4,3.9-7.3,7.1s-3,6.4-3.4,9.6c-0.3,2.4-0.1,4.5,0.5,6.4
		s1.7,3.4,3.3,4.5s3.5,1.6,5.6,1.6c2.2,0,4.4-0.6,6.4-1.9s3.8-3.1,5.2-5.6c1.5-2.4,2.6-5.3,3.5-8.7C291.1,65.2,292,60.3,292.9,53.9z
		"/>
	<path class="st2" d="M322.7,101l5.4-29.4l3.8-23l1.4-9.9c4.5,0.1,8.4,0.1,11.8,0.1c3.9,0,7.6,0,11.3-0.1l-1.4,8.1
		c1.5-1.6,2.7-2.9,3.7-3.8c1-0.9,2.2-1.7,3.5-2.5c1.4-0.8,2.7-1.4,4.1-1.9s3-0.8,4.7-1.1s3.5-0.4,5.3-0.4c2.1,0,4,0.2,5.7,0.5
		s3.2,0.8,4.4,1.3c1.2,0.5,2.2,1.1,3.1,1.8s1.6,1.5,2.2,2.4s1.3,2.1,2,3.8c2.1-2.6,4.3-4.6,6.4-5.9c2.2-1.3,4.6-2.3,7.2-3
		c2.6-0.6,5.3-0.9,8-0.9c3.5,0,6.8,0.5,9.8,1.5s5.4,2.8,7.1,5.3s2.3,5.8,1.8,9.7c-0.2,1.9-0.7,4.7-1.5,8.5
		c-0.7,3.8-1.9,10.3-3.5,19.5s-2.7,15.7-3.2,19.4c-3.7-0.1-7.3-0.1-10.8-0.1c-4.3,0-8.8,0-13.4,0.1c1.1-5.2,2.3-11.7,3.7-19.5
		s2.3-13.2,2.7-16.2c0.3-2.6,0.3-4.6-0.2-5.9s-1.1-2.2-2-2.7s-1.9-0.7-3.1-0.7s-2.3,0.2-3.3,0.7s-2,1.3-2.9,2.3
		c-1.1,1.4-2.2,3.1-3,5.1c-0.7,1.6-1.4,4-2.1,7.3s-1.5,7.7-2.3,13.2l-2.5,16.4c-4.3-0.1-8.3-0.1-11.8-0.1c-3.6,0-7.8,0-12.6,0.1
		c0.8-3.6,2-9.7,3.6-18.3s2.5-14.3,2.9-17.2c0.3-2.4,0.3-4.3,0-5.5s-0.9-2.2-1.7-2.9c-0.8-0.7-1.9-1.1-3.4-1.1c-1.6,0-3,0.5-4.3,1.4
		s-2.5,2.3-3.5,4c-1.1,1.8-1.9,4.2-2.7,7.2c-0.7,3.1-1.6,7.8-2.7,14.1c-1.1,6.3-2,12.4-2.8,18.2c-4.9-0.1-8.9-0.1-12-0.1
		C332,100.9,327.8,101,322.7,101z"/>
	<path class="st2" d="M438.8,101c1.2-5,2.1-9.1,2.8-12.3c0.7-3.2,1.5-7.3,2.4-12.3s1.8-10.5,2.8-16.6s2-13.1,3.1-21.1
		c5.3,0.1,9.5,0.1,12.7,0.1c2.9,0,7.1,0,12.5-0.1c-1.7,7.7-3,14.5-4,20.3s-2,12-2.9,18.5c-1.6,11.6-2.7,19.4-3.2,23.6
		c-4.8-0.1-9-0.1-12.5-0.1C448.9,100.9,444.4,101,438.8,101z M451.3,30.9c0.8-4.8,1.4-8.7,1.8-11.5c0.1-0.8,0.2-1.9,0.3-3.3
		c4.9,0.1,9,0.1,12.4,0.1c4.6,0,8.6,0,12.1-0.1c-0.3,1.3-0.5,2.3-0.6,3.2l-1.3,7.6c-0.2,1.1-0.4,2.5-0.6,4c-4-0.1-7.9-0.1-11.6-0.1
		C460,30.8,455.8,30.8,451.3,30.9z"/>
	<path class="st2" d="M477.5,101c2.3-9.2,4.5-19.5,6.5-30.6s3.7-21.7,5.1-31.7c4.9,0.1,9.1,0.1,12.6,0.1c4.1,0,8.1,0,11.9-0.1
		L512,47c1.5-1.5,2.8-2.7,3.9-3.6c1.1-0.9,2.4-1.7,4-2.6c1.5-0.8,3.2-1.5,4.9-2s3.5-0.9,5.5-1.3c2-0.3,4-0.5,6.1-0.5
		c2.9,0,5.8,0.3,8.5,0.9c2.7,0.6,4.9,1.5,6.7,2.7c1.7,1.2,3.1,2.6,4.2,4.3c1,1.7,1.6,3.6,1.8,5.6s0.1,4.1-0.2,6.2
		c-0.2,1.5-0.8,4.9-1.7,10l-3.8,22.1c-0.7,4.4-1.4,8.4-1.8,12.1c-4.1-0.1-7.9-0.1-11.5-0.1c-4.8,0-9.3,0-13.3,0.1
		c0.8-3.7,1.9-9.2,3.2-16.5S530.7,72,531,69c0.6-4.6,0.1-7.8-1.5-9.6c-1.5-1.8-3.7-2.7-6.4-2.7c-2.4,0-4.7,0.8-7,2.3
		s-4.2,3.8-5.7,6.7c-1.5,3-2.9,7.8-4.2,14.6c-1.3,6.8-2.5,13.6-3.5,20.6c-4.1-0.1-8-0.1-11.9-0.1C486.7,100.9,482.3,101,477.5,101z"
		/>
</g>
</svg>
